<?xml version="1.0" encoding="utf-8"?>
<!DOCTYPE svg PUBLIC "-//W3C//DTD SVG 1.1//EN" "http://www.w3.org/Graphics/SVG/1.1/DTD/svg11.dtd">
<svg version="1.1" id="图形" xmlns="http://www.w3.org/2000/svg" xmlns:xlink="http://www.w3.org/1999/xlink" x="0px" y="0px" width="1024px" height="1024px" viewBox="0 0 1024 1024" enable-background="new 0 0 1024 1024" xml:space="preserve">
  <path fill="#eb4f38" d="M371.925333 568.714667l193.962667-112c15.317333-8.832 34.901333-3.584 43.690667 11.690667 8.874667 15.274667 3.626667 34.858667-11.690667 43.690667l-193.962667 112c-15.317333 8.832-34.901333 3.584-43.690667-11.690667s-3.584-34.858667 11.690667-43.690667zM549.930667 428.981333l-193.962667 112-112-193.962667 194.005333-112 112 193.962667zM195.925333 263.861333l193.962667-112c15.317333-8.832 34.901333-3.584 43.690667 11.690667s3.584 34.858667-11.690667 43.690667l-193.962667 112c-15.317333 8.832-34.858667 3.584-43.690667-11.690667s-3.584-34.901333 11.690667-43.733333zM864.384 173.578667l-354.432 186.154667-32-55.424 338.432-213.845333c22.954667-13.269333 52.309333-5.418667 65.578667 17.578667s5.376 52.309333-17.578667 65.578667zM513.066667 12c0 17.706667-14.336 32-32 32l-288 0c-17.706667 0-32-14.293333-32-32s0-32 0-32l-33.066667 0.682667 1.066667-32.682667 416 0 1.493333 30.634667-31.488 1.365333c0 0-2.005333 14.336-2.005333 32z" transform="translate(0, 812) scale(1, -1)"/>
</svg>
